<svg width="18" height="19" viewBox="0 0 18 19" fill="none" xmlns="http://www.w3.org/2000/svg">
<path d="M8.232 0.283936C7.80807 0.283936 7.464 0.628 7.464 1.05194V1.96694C3.53879 2.6927 0.552002 6.13654 0.552002 10.2679C0.552002 14.9245 4.3434 18.7159 9 18.7159C13.6566 18.7159 17.448 14.9245 17.448 10.2679C17.448 6.13654 14.4612 2.6927 10.536 1.96694V1.05194C10.536 0.628 10.1919 0.283936 9.768 0.283936H8.232ZM15.1365 1.81244C14.9837 1.81248 14.8344 1.85808 14.7077 1.94341C14.581 2.02875 14.4826 2.14994 14.4251 2.29149C14.3676 2.43304 14.3536 2.58852 14.385 2.73806C14.4163 2.88759 14.4915 3.02438 14.601 3.13094L15.369 3.89894C15.4398 3.97264 15.5245 4.03149 15.6183 4.07203C15.7121 4.11257 15.8131 4.13398 15.9152 4.13502C16.0174 4.13606 16.1188 4.1167 16.2134 4.07808C16.308 4.03946 16.3939 3.98235 16.4662 3.9101C16.5384 3.83785 16.5955 3.7519 16.6341 3.6573C16.6728 3.5627 16.6921 3.46135 16.6911 3.35917C16.6901 3.257 16.6686 3.15606 16.6281 3.06226C16.5876 2.96847 16.5287 2.8837 16.455 2.81294L15.687 2.04494C15.6154 1.97137 15.5298 1.91289 15.4353 1.87295C15.3407 1.83302 15.2391 1.81244 15.1365 1.81244ZM9 3.35594C12.8265 3.35594 15.912 6.44145 15.912 10.2679C15.912 14.0944 12.8265 17.1799 9 17.1799C5.17351 17.1799 2.088 14.0944 2.088 10.2679C2.088 6.44145 5.17351 3.35594 9 3.35594ZM8.988 4.88144C8.78458 4.88462 8.59073 4.96837 8.44899 5.11433C8.30725 5.26028 8.22922 5.45651 8.232 5.65994V8.94044C7.9989 9.07502 7.80525 9.26849 7.67046 9.50148C7.53568 9.73446 7.46448 9.99877 7.464 10.2679C7.46422 10.5374 7.53529 10.802 7.67009 11.0352C7.80489 11.2685 7.99868 11.4622 8.232 11.5969V12.5719C8.23056 12.6737 8.24936 12.7747 8.28731 12.8692C8.32526 12.9636 8.3816 13.0496 8.45306 13.1221C8.52452 13.1945 8.60967 13.2521 8.70356 13.2914C8.79746 13.3306 8.89822 13.3509 9 13.3509C9.10178 13.3509 9.20255 13.3306 9.29644 13.2914C9.39033 13.2521 9.47548 13.1945 9.54694 13.1221C9.6184 13.0496 9.67474 12.9636 9.71269 12.8692C9.75064 12.7747 9.76944 12.6737 9.768 12.5719V11.5954C10.0011 11.4609 10.1948 11.2674 10.3295 11.0344C10.4643 10.8014 10.5355 10.5371 10.536 10.2679C10.5358 9.99852 10.4647 9.73389 10.3299 9.50062C10.1951 9.26735 10.0013 9.07365 9.768 8.93894V5.65994C9.76941 5.55719 9.75018 5.4552 9.71146 5.36001C9.67274 5.26483 9.61532 5.17838 9.54259 5.10578C9.46985 5.03319 9.3833 4.97593 9.28804 4.9374C9.19277 4.89886 9.09075 4.87983 8.988 4.88144Z" fill="white"/>
</svg>
