<svg width="22" height="21" viewBox="0 0 22 21" fill="none" xmlns="http://www.w3.org/2000/svg">
<ellipse cx="10.998" cy="10.3458" rx="10.125" ry="10.1495" fill="#1565DD"/>
<g clip-path="url(#clip0_1_647)">
<path d="M13.2089 16.9592C13.3186 16.9563 13.4263 16.9288 13.5237 16.8786C13.6171 16.838 13.7011 16.7788 13.7706 16.7048C13.84 16.6308 13.8935 16.5434 13.9278 16.4482C13.962 16.3529 13.9763 16.2517 13.9696 16.1508C13.963 16.0499 13.9357 15.9513 13.8893 15.8613C13.8893 15.8613 12.437 12.5675 12.173 11.3588C12.0714 10.9357 12.0105 9.81767 11.9902 9.29389C11.987 9.20919 12.0107 9.12562 12.0581 9.0551C12.1055 8.98457 12.1742 8.93066 12.2542 8.90106L15.5041 7.93408C15.9001 7.83335 16.1337 7.38008 16.0322 6.98725C15.9306 6.59441 15.4736 6.36274 15.0775 6.46347C15.0775 6.46347 12.0714 7.43044 10.9848 7.43044C9.92859 7.43044 6.94281 6.48361 6.94281 6.48361C6.54674 6.38289 6.09989 6.56419 5.96786 6.95703C5.93439 7.0548 5.92164 7.15838 5.93043 7.26127C5.93922 7.36416 5.96935 7.46414 6.01894 7.55493C6.06853 7.64573 6.13649 7.72538 6.21858 7.78889C6.30067 7.8524 6.3951 7.8984 6.49596 7.92401L9.74579 8.89098C9.82973 8.91459 9.90243 8.96711 9.95083 9.03912C9.99923 9.11112 10.0202 9.19789 10.0098 9.28382C9.97937 9.8076 9.92859 10.9357 9.82703 11.3487C9.56298 12.5574 8.11072 15.8512 8.11072 15.8512C8.02639 16.0347 8.0174 16.2435 8.08564 16.4334C8.15389 16.6233 8.29402 16.7794 8.47632 16.8685C8.5656 16.9144 8.66349 16.9414 8.76381 16.9478C8.86414 16.9543 8.96472 16.94 9.0592 16.9059C9.15368 16.8718 9.24001 16.8187 9.31274 16.7498C9.38547 16.681 9.44301 16.5979 9.48174 16.5059L11.0356 13.3633L12.5183 16.5261C12.5797 16.6561 12.6774 16.766 12.7998 16.8427C12.9221 16.9195 13.0641 16.9599 13.2089 16.9592Z" fill="#FBFCFF"/>
<path d="M11.0433 6.67413C11.8622 6.67413 12.526 6.01572 12.526 5.20352C12.526 4.39133 11.8622 3.73291 11.0433 3.73291C10.2244 3.73291 9.56055 4.39133 9.56055 5.20352C9.56055 6.01572 10.2244 6.67413 11.0433 6.67413Z" fill="#FBFCFF"/>
</g>
<defs>
<clipPath id="clip0_1_647">
<rect width="10.1252" height="13.2254" fill="white" transform="translate(5.93555 3.73291)"/>
</clipPath>
</defs>
</svg>
