<svg width="31" height="31" viewBox="0 0 31 31" fill="none" xmlns="http://www.w3.org/2000/svg">
<path d="M30.5 15.75C30.5 7.46625 23.7837 0.75 15.5 0.749999C7.21625 0.749999 0.5 7.46625 0.499999 15.75C0.499999 24.0337 7.21625 30.75 15.5 30.75C23.7837 30.75 30.5 24.0337 30.5 15.75Z" fill="url(#paint0_linear_3_2088)"/>
<path d="M10.1429 8.75C8.96107 8.75 8 9.75912 8 11V21.5C8 22.7409 8.96107 23.75 10.1429 23.75H20.8571C22.0389 23.75 23 22.7409 23 21.5V11C23 9.75912 22.0389 8.75 20.8571 8.75H10.1429ZM10.1429 12.875H20.8571C21.2511 12.875 21.5714 13.2114 21.5714 13.625V21.5C21.5714 21.9136 21.2511 22.25 20.8571 22.25H10.1429C9.74893 22.25 9.42857 21.9136 9.42857 21.5V13.625C9.42857 13.2114 9.74893 12.875 10.1429 12.875ZM15.5 14.1707C15.2969 14.1707 15.0937 14.2536 14.958 14.4197L13.708 15.949C13.5262 16.1713 13.4849 16.4847 13.6013 16.751C13.7177 17.0172 13.9711 17.1875 14.25 17.1875H16.75C17.0289 17.1875 17.283 17.0172 17.3994 16.751C17.5158 16.4847 17.4738 16.1713 17.292 15.949L16.042 14.4197C15.9063 14.2536 15.7031 14.1707 15.5 14.1707ZM14.25 17.9141C13.9721 17.9141 13.7191 18.0833 13.602 18.3484C13.4852 18.6131 13.5249 18.9251 13.7045 19.1482L14.9545 20.7002C15.0902 20.8686 15.2896 20.9661 15.5 20.9661C15.7104 20.9661 15.9098 20.8686 16.0455 20.7002L17.2955 19.1482C17.4751 18.9254 17.5148 18.6135 17.398 18.3484C17.2809 18.0833 17.0279 17.9141 16.75 17.9141H14.25Z" fill="white"/>
<defs>
<linearGradient id="paint0_linear_3_2088" x1="0.5" y1="0.749999" x2="29.2545" y2="31.8997" gradientUnits="userSpaceOnUse">
<stop stop-color="#7ECD19"/>
<stop offset="1" stop-color="#38B000"/>
</linearGradient>
</defs>
</svg>
