<svg width="27" height="28" viewBox="0 0 27 28" fill="none" xmlns="http://www.w3.org/2000/svg">
<path d="M27 14.0001C27 6.54475 20.9554 0.500122 13.5 0.500121C6.04463 0.500121 -2.64219e-07 6.54475 -5.90104e-07 14.0001C-9.15988e-07 21.4555 6.04463 27.5001 13.5 27.5001C20.9554 27.5001 27 21.4555 27 14.0001Z" fill="#FF3E3E"/>
<path d="M27 14.0001C27 6.54475 20.9554 0.500122 13.5 0.500121C6.04463 0.500121 -2.64219e-07 6.54475 -5.90104e-07 14.0001C-9.15988e-07 21.4555 6.04463 27.5001 13.5 27.5001C20.9554 27.5001 27 21.4555 27 14.0001Z" fill="url(#paint0_linear_3_1945)" style="mix-blend-mode:overlay"/>
<path d="M14.2405 20.5823C13.8826 21.0989 13.1188 21.0989 12.7609 20.5823L6.06158 10.9127C5.64805 10.3158 6.07524 9.50015 6.80137 9.50015L20.2 9.50015C20.9262 9.50015 21.3534 10.3158 20.9398 10.9127L14.2405 20.5823Z" fill="white"/>
<defs>
<linearGradient id="paint0_linear_3_1945" x1="-1.18021e-06" y1="27.5001" x2="0" y2="0.500121" gradientUnits="userSpaceOnUse">
<stop stop-color="#003E7C"/>
<stop offset="1" stop-color="#0686D8"/>
</linearGradient>
</defs>
</svg>
