<svg width="31" height="31" viewBox="0 0 31 31" fill="none" xmlns="http://www.w3.org/2000/svg">
<circle cx="15.5" cy="15.75" r="15" fill="#FF3E3E"/>
<circle cx="15.5" cy="15.75" r="15" fill="url(#paint0_linear_3_2097)" style="mix-blend-mode:overlay"/>
<path d="M10.5005 8.75C9.67886 8.75 9.03631 9.02033 8.66431 9.39233C8.29231 9.76433 8.00562 10.3276 8 11.2505V21.2495C8 21.9339 8.19057 22.635 8.65332 23.0974C9.11607 23.5598 9.78536 23.75 10.5005 23.75H20.4995C21.1085 23.75 21.8439 23.5991 22.3438 23.0996C22.8436 22.5994 23 21.9035 23 21.2502V14.375V11.2505C23 10.4142 22.7422 9.79302 22.3496 9.40039C21.957 9.00777 21.3155 8.75 20.5002 8.75H10.5005ZM20.2314 10.25C20.6443 10.25 20.9559 10.2816 21.2122 10.5378C21.5538 10.8795 21.4963 11.3319 21.4963 11.9668V13.625H18.8545C18.8114 13.1585 18.5549 12.7257 18.1345 12.4744C17.2784 11.9629 16.39 11.7031 15.4949 11.7031C14.5994 11.7031 13.7113 11.9629 12.8552 12.4744C12.4349 12.7257 12.1784 13.1585 12.1353 13.625H9.50146V11.9668C9.50146 11.2453 9.46013 10.8641 9.78638 10.5378C10.1126 10.2112 10.4826 10.2537 11.2153 10.2537H19.7832C19.945 10.2537 20.0938 10.25 20.2314 10.25ZM15.4949 13.2031C16.1185 13.2031 16.7419 13.3896 17.3655 13.762L16.8667 15.5H16.2317L16.5452 14.5969C16.6813 14.2058 16.4738 13.7783 16.0823 13.6426C15.6923 13.5068 15.2641 13.7143 15.1279 14.1055L14.6445 15.5H14.1238L13.625 13.762C14.2483 13.3896 14.8716 13.2031 15.4949 13.2031ZM9.50146 15.125H12.4553L12.6816 15.9138C12.8661 16.5569 13.4548 17 14.1238 17H16.866C17.5353 17 18.1236 16.5569 18.3081 15.9138L18.5344 15.125H21.4963V20.5347C21.4963 21.2644 21.5388 21.637 21.2122 21.9636C20.8855 22.2899 20.5366 22.2478 19.7832 22.2478H11.2153C10.435 22.2478 10.0849 22.2673 9.78345 21.9658C9.48195 21.6643 9.50146 21.3533 9.50146 20.5347V15.125Z" fill="white"/>
<defs>
<linearGradient id="paint0_linear_3_2097" x1="30.5" y1="30.75" x2="0.5" y2="30.75" gradientUnits="userSpaceOnUse">
<stop stop-color="#003E7C"/>
<stop offset="1" stop-color="#0686D8"/>
</linearGradient>
</defs>
</svg>
