<svg width="31" height="31" viewBox="0 0 31 31" fill="none" xmlns="http://www.w3.org/2000/svg">
<circle cx="15.5" cy="15.75" r="15" fill="url(#paint0_linear_3_2107)"/>
<path d="M11.4489 8.75065C11.1232 8.75065 10.8592 9.00609 10.8402 9.32699L10.191 9.36287C9.85424 9.38123 9.59385 9.67185 9.61222 10.0086C9.62936 10.3159 9.86855 10.5873 10.2579 10.5873L10.8367 10.555V11.1995H10.2244C9.88772 11.1995 9.61222 11.475 9.61222 11.8117C9.61222 12.1485 9.88772 12.424 10.2244 12.424H10.8367V14.2606H10.5305C9.6866 14.2606 9 14.9472 9 15.7912V16.0973C9 18.3407 10.1638 20.4057 12.0611 21.5732V22.5256C12.0611 23.2008 12.6103 23.75 13.2855 23.75H17.5711C18.2463 23.75 18.7955 23.2008 18.7955 22.5256V21.5732C20.6928 20.4057 21.8566 18.3407 21.8566 16.0973V15.7912C21.8566 14.9472 21.17 14.2606 20.326 14.2606H12.0611V12.424V11.1995V10.4863V9.36287V9.25884L12.0503 9.25944C12.0009 8.97102 11.7513 8.75065 11.4489 8.75065ZM13.5916 8.75065C13.2537 8.75065 12.9794 9.02492 12.9794 9.36287V12.424C12.9794 12.7619 13.2537 13.0362 13.5916 13.0362C13.9296 13.0362 14.2039 12.7619 14.2039 12.424V9.36287C14.2039 9.02492 13.9296 8.75065 13.5916 8.75065ZM21.2109 8.75065L15.1222 9.09024V10.3177L21.2778 9.97509C21.6146 9.95672 21.875 9.66611 21.8566 9.32939C21.8382 8.99267 21.5537 8.73534 21.2109 8.75065ZM15.1222 11.1995V12.424H21.2444C21.5811 12.424 21.8566 12.1485 21.8566 11.8117C21.8566 11.475 21.5811 11.1995 21.2444 11.1995H15.1222ZM10.5305 15.4851H20.326C20.495 15.4851 20.6321 15.6222 20.6321 15.7912V16.0973C20.6321 18.0169 19.579 19.7759 17.8843 20.6853C17.6887 20.79 17.5711 20.9979 17.5711 21.2198V22.2195C17.5711 22.3884 17.4339 22.5256 17.2649 22.5256H13.5916C13.4227 22.5256 13.2855 22.3884 13.2855 22.2195V21.2198C13.2855 20.9979 13.1678 20.79 12.9722 20.6853C11.2776 19.7759 10.2244 18.0169 10.2244 16.0973V15.7912C10.2244 15.6222 10.3616 15.4851 10.5305 15.4851Z" fill="white"/>
<defs>
<linearGradient id="paint0_linear_3_2107" x1="29.5" y1="-2.25" x2="0.500003" y2="30.75" gradientUnits="userSpaceOnUse">
<stop stop-color="#F2A000"/>
<stop offset="1" stop-color="#F26600"/>
</linearGradient>
</defs>
</svg>
