<svg width="27" height="28" viewBox="0 0 27 28" fill="none" xmlns="http://www.w3.org/2000/svg">
<path d="M27 14.0001C27 6.54475 20.9554 0.500122 13.5 0.500121C6.04463 0.500121 -2.64219e-07 6.54475 -5.90104e-07 14.0001C-9.15988e-07 21.4555 6.04463 27.5001 13.5 27.5001C20.9554 27.5001 27 21.4555 27 14.0001Z" fill="#FF3E3E"/>
<path d="M27 14.0001C27 6.54475 20.9554 0.500122 13.5 0.500121C6.04463 0.500121 -2.64219e-07 6.54475 -5.90104e-07 14.0001C-9.15988e-07 21.4555 6.04463 27.5001 13.5 27.5001C20.9554 27.5001 27 21.4555 27 14.0001Z" fill="url(#paint0_linear_3_1972)" style="mix-blend-mode:overlay"/>
<path d="M12.5607 16.9885C12.3023 16.9885 12.0865 16.7916 12.0628 16.5343L11.051 5.54585C11.024 5.25284 11.2546 5 11.5489 5H15.5795C15.8748 5 16.1058 5.2546 16.0771 5.54852L15.0058 16.537C14.9808 16.7931 14.7655 16.9885 14.5081 16.9885H12.5607ZM13.5072 23C12.9445 23 12.4683 22.8069 12.0787 22.4207C11.689 22.0346 11.4942 21.5754 11.4942 21.0434C11.4942 20.5027 11.689 20.035 12.0787 19.6402C12.4683 19.2455 12.9445 19.0481 13.5072 19.0481C14.0613 19.0481 14.5289 19.2455 14.9098 19.6402C15.2994 20.035 15.4942 20.5027 15.4942 21.0434C15.4942 21.5754 15.2994 22.0346 14.9098 22.4207C14.5289 22.8069 14.0613 23 13.5072 23Z" fill="white"/>
<defs>
<linearGradient id="paint0_linear_3_1972" x1="-1.18021e-06" y1="27.5001" x2="0" y2="0.500121" gradientUnits="userSpaceOnUse">
<stop stop-color="#003E7C"/>
<stop offset="1" stop-color="#0686D8"/>
</linearGradient>
</defs>
</svg>
