<svg width="39" height="39" viewBox="0 0 39 39" fill="none" xmlns="http://www.w3.org/2000/svg">
<g filter="url(#filter0_d_3_2116)">
<circle cx="19.5" cy="15.75" r="15" fill="#FF3E3E"/>
<circle cx="19.5" cy="15.75" r="15" fill="url(#paint0_linear_3_2116)" style="mix-blend-mode:overlay"/>
<path d="M27.3887 10.759C26.6616 10.4877 25.7781 10.4819 24.9659 10.756C23.5779 11.2237 20.8079 11.6849 19.5116 11.735C19.1009 11.7518 18.2981 11.4665 17.5906 11.2114C16.3054 10.7511 15.1954 10.3529 14.4126 10.7783C14.1356 10.9296 13.9328 11.1162 13.798 11.5744C13.4543 12.7444 14.0747 13.7823 14.6061 14.3947C13.7526 14.8594 12.4965 15.3929 11.6294 15.2248C11.4239 15.1859 11.2126 15.2393 11.0488 15.3702C10.8862 15.4978 10.7895 15.6943 10.7832 15.9038C10.7788 16.012 10.7011 18.6056 10.9103 19.9547C11.1033 21.2109 11.8604 22.5396 13.1199 22.987C13.4222 23.0944 13.7537 23.1511 14.1123 23.1423C15.8964 23.1141 17.057 22.3279 18.083 21.6332C18.516 21.3407 18.9242 21.0658 19.3533 20.8589C20.2306 20.4443 21.1342 20.1143 22.0902 19.7656C23.3006 19.3293 24.5523 18.8739 25.802 18.2096C28.9291 16.5517 29.4519 14.0673 28.8982 12.2933C28.7073 11.6808 28.2896 11.1957 27.6902 10.8919C27.5934 10.8424 27.4926 10.7977 27.3887 10.759ZM26.8715 12.086C26.9312 12.1075 26.9889 12.1318 27.0433 12.1596C27.2967 12.2875 27.4645 12.4756 27.5375 12.7171C27.6762 13.1607 27.7023 13.603 27.6304 14.0341C25.6908 15.7208 23.2186 16.6047 21.0771 17.3289C19.9701 17.7035 18.8251 18.0904 17.7289 18.6122C16.943 18.9858 16.3203 19.3735 15.7186 19.7479C14.9078 20.2521 13.9591 20.7875 12.8713 21.0687C12.551 20.645 12.3764 20.1074 12.3189 19.737C12.1951 18.9251 12.1844 17.5291 12.1955 16.6782C14.0079 16.5807 15.9412 15.2703 16.1869 15.1004C16.3778 14.9677 16.4891 14.75 16.4892 14.5155C16.4927 14.2822 16.3769 14.0634 16.1856 13.9311C16.1733 13.923 14.9255 13.1091 15.1472 12.0773C15.1588 12.0232 15.1947 11.9756 15.2447 11.9797C15.6778 12.0167 16.568 12.3611 17.1101 12.5537C17.5856 12.7227 18.0464 12.886 18.4766 13.0015L18.4679 13.4417C18.4617 13.7565 18.6603 14.0272 18.9418 14.1272C19.012 14.1521 19.0877 14.1667 19.1667 14.1679C19.5603 14.1758 19.8863 13.8625 19.8938 13.4688L19.9005 13.138C20.1513 13.1202 20.4258 13.0954 20.7299 13.0595L20.7231 13.397C20.7168 13.7117 20.9161 13.9827 21.1976 14.0827C21.2678 14.1076 21.3436 14.1219 21.4225 14.1234C21.8161 14.1312 22.1412 13.8184 22.1487 13.4247L22.1599 12.8524C23.3466 12.6549 24.5886 12.3875 25.4242 12.1068C25.9168 11.9408 26.4534 11.9356 26.8715 12.086Z" fill="white"/>
</g>
<defs>
<filter id="filter0_d_3_2116" x="0.5" y="0.75" width="38" height="38" filterUnits="userSpaceOnUse" color-interpolation-filters="sRGB">
<feFlood flood-opacity="0" result="BackgroundImageFix"/>
<feColorMatrix in="SourceAlpha" type="matrix" values="0 0 0 0 0 0 0 0 0 0 0 0 0 0 0 0 0 0 127 0" result="hardAlpha"/>
<feOffset dy="4"/>
<feGaussianBlur stdDeviation="2"/>
<feComposite in2="hardAlpha" operator="out"/>
<feColorMatrix type="matrix" values="0 0 0 0 0 0 0 0 0 0 0 0 0 0 0 0 0 0 0.25 0"/>
<feBlend mode="normal" in2="BackgroundImageFix" result="effect1_dropShadow_3_2116"/>
<feBlend mode="normal" in="SourceGraphic" in2="effect1_dropShadow_3_2116" result="shape"/>
</filter>
<linearGradient id="paint0_linear_3_2116" x1="34.5" y1="30.75" x2="4.5" y2="30.75" gradientUnits="userSpaceOnUse">
<stop stop-color="#003E7C"/>
<stop offset="1" stop-color="#0686D8"/>
</linearGradient>
</defs>
</svg>
