<svg width="18" height="18" viewBox="0 0 18 18" fill="none" xmlns="http://www.w3.org/2000/svg">
<rect width="18" height="18" rx="9" fill="url(#paint0_linear_3_2039)"/>
<path d="M12.1629 5.05184C12.3246 4.81599 12.5943 4.68513 12.8716 4.68014C13.0381 4.67715 13.207 4.71978 13.3576 4.81147C13.7581 5.05639 13.8725 5.56074 13.6133 5.93851L8.7981 12.9483C8.65079 13.1622 8.40661 13.2997 8.13661 13.3184C8.11545 13.3196 8.09407 13.32 8.07333 13.32C7.82623 13.32 7.58952 13.2203 7.4245 13.0438L4.463 9.86883C4.14808 9.53059 4.18335 9.0154 4.54147 8.71791C4.89959 8.42042 5.44659 8.45371 5.76151 8.79113L7.96871 11.159L12.1629 5.05184Z" fill="white"/>
<defs>
<linearGradient id="paint0_linear_3_2039" x1="2.34693e-07" y1="18" x2="18.6898" y2="0.747294" gradientUnits="userSpaceOnUse">
<stop stop-color="#7ECD19"/>
<stop offset="1" stop-color="#38B000"/>
</linearGradient>
</defs>
</svg>
