<svg width="16" height="16" viewBox="0 0 16 16" fill="none" xmlns="http://www.w3.org/2000/svg">
<path d="M8 0C3.582 0 0 3.582 0 8C0 12.418 3.582 16 8 16C12.418 16 16 12.418 16 8C16 3.582 12.418 0 8 0ZM12.4713 6.47133L7.43133 11.5113C7.306 11.6367 7.13667 11.7067 6.96 11.7067C6.78333 11.7067 6.61333 11.6367 6.48867 11.5113L4.18667 9.20933C3.926 8.94867 3.926 8.52733 4.18667 8.26667C4.44733 8.006 4.86867 8.006 5.12933 8.26667L6.96 10.0973L11.5287 5.52867C11.7893 5.268 12.2107 5.268 12.4713 5.52867C12.732 5.78933 12.732 6.21067 12.4713 6.47133Z" fill="white"/>
<path d="M12.4704 6.4702L7.4304 11.5102C7.30507 11.6355 7.13573 11.7055 6.95907 11.7055C6.7824 11.7055 6.6124 11.6355 6.48773 11.5102L4.18573 9.2082C3.92507 8.94753 3.92507 8.5262 4.18573 8.26553C4.4464 8.00486 4.86773 8.00486 5.1284 8.26553L6.95907 10.0962L11.5277 5.52753C11.7884 5.26686 12.2097 5.26686 12.4704 5.52753C12.7311 5.7882 12.7311 6.20953 12.4704 6.4702Z" fill="#024889"/>
</svg>
