<svg width="22" height="14" viewBox="0 0 22 14" fill="none" xmlns="http://www.w3.org/2000/svg">
<path d="M21.8731 4.84961H0.87793V5.85137H21.8731V4.84961Z" fill="#DB2E2E"/>
<path d="M21.8731 2.85254H0.87793V3.85307H21.8731V2.85254Z" fill="#DB2E2E"/>
<path d="M21.8731 0.856445H0.87793V1.85698H21.8731V0.856445Z" fill="#DB2E2E"/>
<path d="M21.8731 6.8479H0.87793V7.84966H21.8731V6.8479Z" fill="#DB2E2E"/>
<path d="M21.8731 8.84326H0.87793V9.84502H21.8731V8.84326Z" fill="#DB2E2E"/>
<path d="M21.8731 10.8411H0.87793V11.8416H21.8731V10.8411Z" fill="#DB2E2E"/>
<path d="M21.8731 12.8347H0.87793V13.8352H21.8731V12.8347Z" fill="#DB2E2E"/>
<path d="M21.872 3.85083H0.876831V4.85136H21.872V3.85083Z" fill="white"/>
<path d="M21.872 1.85498H0.876831V2.85551H21.872V1.85498Z" fill="white"/>
<path d="M21.872 5.8501H0.876831V6.85063H21.872V5.8501Z" fill="white"/>
<path d="M21.872 7.84302H0.876831V8.84355H21.872V7.84302Z" fill="white"/>
<path d="M21.872 9.84106H0.876831V10.8416H21.872V9.84106Z" fill="white"/>
<path d="M21.872 11.8384H0.876831V12.8389H21.872V11.8384Z" fill="white"/>
<path d="M8.72729 0.887939H0.876831V6.93217H8.72729V0.887939Z" fill="#2E4593"/>
<path d="M7.446 2.08859L7.52932 2.32325L7.33081 2.1762L7.13352 2.32325L7.21624 2.08859L7.0116 1.95073H7.25667L7.32407 1.71484L7.40004 1.95073H7.64941L7.44354 2.08859H7.446Z" fill="white"/>
<path d="M7.446 3.31027L7.52932 3.54372L7.33081 3.39789L7.13352 3.54372L7.21624 3.31027L7.0116 3.1712H7.25667L7.32407 2.9353L7.40004 3.1712H7.6488L7.44293 3.31027H7.446Z" fill="white"/>
<path d="M7.446 4.53268L7.52932 4.76611L7.33081 4.61906L7.13352 4.76611L7.21624 4.53268L7.0116 4.39482H7.25667L7.32407 4.15894L7.40004 4.39482H7.64941L7.44354 4.53268H7.446Z" fill="white"/>
<path d="M7.446 5.75388L7.52932 5.98732L7.33081 5.84149L7.13352 5.98732L7.21624 5.75388L7.0116 5.6148H7.25667L7.32407 5.37891L7.40004 5.6148H7.6488L7.44293 5.75388H7.446Z" fill="white"/>
<path d="M6.15425 2.08859L6.23758 2.32325L6.03906 2.1762L5.84055 2.32325L5.92449 2.08859L5.71985 1.95073H5.96493L6.03232 1.71484L6.1083 1.95073H6.35644L6.1518 2.08859H6.15425Z" fill="white"/>
<path d="M6.15425 3.31027L6.23758 3.54372L6.03906 3.39789L5.84055 3.54372L5.92449 3.31027L5.71985 3.1712H5.96493L6.03232 2.9353L6.1083 3.1712H6.35338L6.14873 3.31027H6.15425Z" fill="white"/>
<path d="M6.15425 4.53268L6.23758 4.76611L6.03906 4.61906L5.84055 4.76611L5.92449 4.53268L5.71985 4.39482H5.96493L6.03232 4.15894L6.1083 4.39482H6.35644L6.1518 4.53268H6.15425Z" fill="white"/>
<path d="M6.15425 5.75388L6.23758 5.98732L6.03906 5.84149L5.84055 5.98732L5.92449 5.75388L5.71985 5.6148H5.96493L6.03232 5.37891L6.1083 5.6148H6.35338L6.14873 5.75388H6.15425Z" fill="white"/>
<path d="M4.84993 2.08859L4.93387 2.32325L4.73475 2.1762L4.53624 2.32325L4.61895 2.08859L4.41431 1.95073H4.65939L4.72617 1.71484L4.80276 1.95073H5.05151L4.84626 2.08859H4.84993Z" fill="white"/>
<path d="M4.84993 3.31027L4.93387 3.54372L4.73475 3.39789L4.53624 3.54372L4.61895 3.31027L4.41431 3.1712H4.65939L4.72617 2.9353L4.80276 3.1712H5.0509L4.84565 3.31027H4.84993Z" fill="white"/>
<path d="M4.84993 4.53268L4.93387 4.76611L4.73475 4.61906L4.53624 4.76611L4.61895 4.53268L4.41431 4.39482H4.65939L4.72617 4.15894L4.80276 4.39482H5.05151L4.84626 4.53268H4.84993Z" fill="white"/>
<path d="M4.84993 5.75388L4.93387 5.98732L4.73475 5.84149L4.53624 5.98732L4.61895 5.75388L4.41431 5.6148H4.65939L4.72617 5.37891L4.80276 5.6148H5.0509L4.84565 5.75388H4.84993Z" fill="white"/>
<path d="M3.56087 2.08859L3.64359 2.32325L3.44507 2.1762L3.24595 2.32325L3.32927 2.08859L3.12463 1.95073H3.36971L3.4365 1.71484L3.51308 1.95073H3.76122L3.55658 2.08859H3.56087Z" fill="white"/>
<path d="M3.56087 3.31027L3.64359 3.54372L3.44507 3.39789L3.24595 3.54372L3.32927 3.31027L3.12463 3.1712H3.36971L3.4365 2.9353L3.51308 3.1712H3.76122L3.55658 3.31027H3.56087Z" fill="white"/>
<path d="M3.56087 4.53268L3.64359 4.76611L3.44507 4.61906L3.24595 4.76611L3.32927 4.53268L3.12463 4.39482H3.36971L3.4365 4.15894L3.51308 4.39482H3.76122L3.55658 4.53268H3.56087Z" fill="white"/>
<path d="M3.56087 5.75388L3.64359 5.98732L3.44507 5.84149L3.24595 5.98732L3.32927 5.75388L3.12463 5.6148H3.36971L3.4365 5.37891L3.51308 5.6148H3.76122L3.55658 5.75388H3.56087Z" fill="white"/>
<path d="M2.29012 2.08859L2.37344 2.32325L2.17493 2.1762L1.97703 2.32325L2.05974 2.08859L1.8551 1.95073H2.10018L2.16697 1.71484L2.24355 1.95073H2.49231L2.28644 2.08859H2.29012Z" fill="white"/>
<path d="M2.29012 3.31027L2.37344 3.54372L2.17493 3.39789L1.97703 3.54372L2.05974 3.31027L1.8551 3.1712H2.10018L2.16697 2.9353L2.24355 3.1712H2.49231L2.28644 3.31027H2.29012Z" fill="white"/>
<path d="M2.29012 4.53268L2.37344 4.76611L2.17493 4.61906L1.97703 4.76611L2.05974 4.53268L1.8551 4.39482H2.10018L2.16697 4.15894L2.24355 4.39482H2.49231L2.28644 4.53268H2.29012Z" fill="white"/>
<path d="M2.29012 5.75388L2.37344 5.98732L2.17493 5.84149L1.97703 5.98732L2.05974 5.75388L1.8551 5.6148H2.10018L2.16697 5.37891L2.24355 5.6148H2.49231L2.28644 5.75388H2.29012Z" fill="white"/>
<path d="M8.07674 2.69844L8.15945 2.93189L7.96094 2.78606L7.76243 2.93189L7.84514 2.69844L7.6405 2.56059H7.88558L7.95236 2.32471L8.02834 2.56059H8.27709L8.07184 2.69844H8.07674Z" fill="white"/>
<path d="M8.07674 3.9194L8.15945 4.15283L7.96094 4.00579L7.76243 4.15283L7.84514 3.9194L7.6405 3.78155H7.88558L7.95236 3.54565L8.02834 3.78155H8.27771L8.07245 3.9194H8.07674Z" fill="white"/>
<path d="M8.07674 5.14377L8.15945 5.37843L7.96094 5.23139L7.76243 5.37843L7.84514 5.14377L7.6405 5.00469H7.88558L7.95236 4.7688L8.02834 5.00346H8.27709L8.07184 5.14255L8.07674 5.14377Z" fill="white"/>
<path d="M8.07674 6.3647L8.15945 6.59936L7.96094 6.45232L7.76243 6.59936L7.84514 6.3647L7.6405 6.22684H7.88558L7.95236 5.99097L8.02834 6.22684H8.27709L8.07184 6.3647H8.07674Z" fill="white"/>
<path d="M8.07674 1.48312L8.15945 1.71655L7.96094 1.57074L7.76243 1.71655L7.84514 1.48312L7.6405 1.34526H7.88558L7.95236 1.10938L8.02834 1.34526H8.27709L8.07184 1.48312H8.07674Z" fill="white"/>
<path d="M6.80025 2.69844L6.88358 2.93189L6.68507 2.78606L6.48655 2.93189L6.56926 2.69844L6.36462 2.56059H6.6097L6.67649 2.32471L6.75246 2.56059H7.0006L6.79596 2.69844H6.80025Z" fill="white"/>
<path d="M6.80025 3.9194L6.88358 4.15283L6.68507 4.00579L6.48655 4.15283L6.56926 3.9194L6.36462 3.78155H6.6097L6.67649 3.54565L6.75246 3.78155H7.00121L6.79658 3.9194H6.80025Z" fill="white"/>
<path d="M6.80025 5.14377L6.88358 5.37843L6.68507 5.23139L6.48655 5.37843L6.56926 5.14377L6.36462 5.00469H6.6097L6.67649 4.7688L6.75246 5.00346H7.0006L6.79596 5.14255L6.80025 5.14377Z" fill="white"/>
<path d="M6.80025 6.3647L6.88358 6.59936L6.68507 6.45232L6.48655 6.59936L6.56926 6.3647L6.36462 6.22684H6.6097L6.67649 5.99097L6.75246 6.22684H7.0006L6.79596 6.3647H6.80025Z" fill="white"/>
<path d="M6.80025 1.48312L6.88358 1.71655L6.68507 1.57074L6.48655 1.71655L6.56926 1.48312L6.36462 1.34526H6.6097L6.67649 1.10938L6.75246 1.34526H7.0006L6.79596 1.48312H6.80025Z" fill="white"/>
<path d="M5.47493 2.69844L5.55887 2.93189L5.35974 2.78606L5.16184 2.93189L5.24517 2.69844L5.04114 2.56059H5.28622L5.35423 2.32471L5.42959 2.56059H5.67467L5.47003 2.69844H5.47493Z" fill="white"/>
<path d="M5.47493 3.9194L5.55887 4.15283L5.35974 4.00579L5.16184 4.15283L5.24517 3.9194L5.04114 3.78155H5.28622L5.35423 3.54565L5.42959 3.78155H5.67834L5.4737 3.9194H5.47493Z" fill="white"/>
<path d="M5.47493 5.14377L5.55887 5.37843L5.35974 5.23139L5.16184 5.37843L5.24517 5.14377L5.04114 5.00469H5.28622L5.35423 4.7688L5.42959 5.00346H5.67467L5.47003 5.14255L5.47493 5.14377Z" fill="white"/>
<path d="M5.47493 6.3647L5.55887 6.59936L5.35974 6.45232L5.16184 6.59936L5.24517 6.3647L5.04114 6.22684H5.28622L5.35423 5.99097L5.42959 6.22684H5.67467L5.47003 6.3647H5.47493Z" fill="white"/>
<path d="M5.47493 1.48312L5.55887 1.71655L5.35974 1.57074L5.16184 1.71655L5.24517 1.48312L5.04114 1.34526H5.28622L5.35423 1.10938L5.42959 1.34526H5.67467L5.47003 1.48312H5.47493Z" fill="white"/>
<path d="M4.18879 2.69844L4.2715 2.93189L4.07421 2.78606L3.8757 2.93189L3.95903 2.69844L3.75562 2.56059H4.00069L4.06747 2.32471L4.14406 2.56059H4.39282L4.18756 2.69844H4.18879Z" fill="white"/>
<path d="M4.18879 3.9194L4.2715 4.15283L4.07421 4.00579L3.8757 4.15283L3.95903 3.9194L3.75562 3.78155H4.00069L4.06747 3.54565L4.14406 3.78155H4.39282L4.18756 3.9194H4.18879Z" fill="white"/>
<path d="M4.18879 5.14377L4.2715 5.37843L4.07421 5.23139L3.8757 5.37843L3.95903 5.14377L3.75562 5.00469H4.00069L4.06747 4.7688L4.14406 5.00346H4.39282L4.18756 5.14255L4.18879 5.14377Z" fill="white"/>
<path d="M4.18879 6.3647L4.2715 6.59936L4.07421 6.45232L3.8757 6.59936L3.95903 6.3647L3.75562 6.22684H4.00069L4.06747 5.99097L4.14406 6.22684H4.39282L4.18756 6.3647H4.18879Z" fill="white"/>
<path d="M4.18879 1.48312L4.2715 1.71655L4.07421 1.57074L3.8757 1.71655L3.95903 1.48312L3.75562 1.34526H4.00069L4.06747 1.10938L4.14406 1.34526H4.39282L4.18756 1.48312H4.18879Z" fill="white"/>
<path d="M2.9322 2.6982L3.01553 2.93164L2.81702 2.78582L2.61912 2.93164L2.70244 2.6982L2.4978 2.56035H2.74288L2.81089 2.32446L2.88687 2.56035H3.13501L2.92975 2.6982H2.9322Z" fill="white"/>
<path d="M2.9322 3.91964L3.01553 4.15308L2.81702 4.00604L2.61912 4.15308L2.70244 3.91964L2.4978 3.78179H2.74288L2.81089 3.5459L2.88687 3.78179H3.13562L2.93037 3.91964H2.9322Z" fill="white"/>
<path d="M2.9322 5.14377L3.01553 5.37843L2.81702 5.23139L2.61912 5.37843L2.70244 5.14377L2.4978 5.00469H2.74288L2.81089 4.7688L2.88687 5.00346H3.13501L2.92975 5.14255L2.9322 5.14377Z" fill="white"/>
<path d="M2.9322 6.3647L3.01553 6.59936L2.81702 6.45232L2.61912 6.59936L2.70244 6.3647L2.4978 6.22684H2.74288L2.81089 5.99097L2.88687 6.22684H3.13501L2.92975 6.3647H2.9322Z" fill="white"/>
<path d="M2.9322 1.48336L3.01553 1.7168L2.81702 1.57098L2.61912 1.7168L2.70244 1.48336L2.4978 1.3455H2.74288L2.81089 1.10962L2.88687 1.3455H3.13501L2.92975 1.48336H2.9322Z" fill="white"/>
<path d="M1.64351 2.69844L1.72684 2.93189L1.52894 2.78606L1.33042 2.93189L1.41436 2.69844L1.2085 2.56059H1.45357L1.52036 2.32471L1.59695 2.56059H1.8457L1.64106 2.69844H1.64351Z" fill="white"/>
<path d="M1.64351 3.91989L1.72684 4.15332L1.52894 4.00628L1.33042 4.15332L1.41436 3.91989L1.2085 3.78204H1.45357L1.52036 3.54614L1.59695 3.78204H1.8457L1.64106 3.91989H1.64351Z" fill="white"/>
<path d="M1.64314 5.14377L1.72647 5.37843L1.52857 5.23139L1.33005 5.37843L1.41399 5.14377L1.20813 5.00469H1.45321L1.51999 4.7688L1.59658 5.00346H1.84533L1.64069 5.14255L1.64314 5.14377Z" fill="white"/>
<path d="M1.64314 6.3647L1.72647 6.59936L1.52857 6.45232L1.33005 6.59936L1.41399 6.3647L1.20813 6.22684H1.45321L1.51999 5.99097L1.59658 6.22684H1.84533L1.64069 6.3647H1.64314Z" fill="white"/>
<path d="M1.64351 1.48336L1.72684 1.7168L1.52894 1.57098L1.33042 1.7168L1.41436 1.48336L1.2085 1.3455H1.45357L1.52036 1.10962L1.59695 1.3455H1.8457L1.64106 1.48336H1.64351Z" fill="white"/>
</svg>
